<svg width="14" height="14" viewBox="0 0 14 14" fill="none" xmlns="http://www.w3.org/2000/svg">
<g clip-path="url(#clip0_3_8)">
<path d="M13.5 10.5V12.5C13.5 12.7652 13.3946 13.0196 13.2071 13.2071C13.0196 13.3946 12.7652 13.5 12.5 13.5H10.5M10.5 0.5H12.5C12.7652 0.5 13.0196 0.605357 13.2071 0.792893C13.3946 0.98043 13.5 1.23478 13.5 1.5V3.5M0.5 3.5V1.5C0.5 1.23478 0.605357 0.98043 0.792893 0.792893C0.98043 0.605357 1.23478 0.5 1.5 0.5H3.5M3.5 13.5H1.5C1.23478 13.5 0.98043 13.3946 0.792893 13.2071C0.605357 13.0196 0.5 12.7652 0.5 12.5V10.5M7 6.5C7.53043 6.5 8.03914 6.28929 8.41421 5.91421C8.78929 5.53914 9 5.03043 9 4.5C9 3.96957 8.78929 3.46086 8.41421 3.08579C8.03914 2.71071 7.53043 2.5 7 2.5C6.46957 2.5 5.96086 2.71071 5.58579 3.08579C5.21071 3.46086 5 3.96957 5 4.5C5 5.03043 5.21071 5.53914 5.58579 5.91421C5.96086 6.28929 6.46957 6.5 7 6.5ZM10.803 11C10.5445 10.1945 10.037 9.4919 9.35351 8.99342C8.67004 8.49494 7.84594 8.22634 7 8.22634C6.15406 8.22634 5.32996 8.49494 4.64649 8.99342C3.96302 9.4919 3.45547 10.1945 3.197 11H10.803Z" stroke="black" stroke-linecap="round" stroke-linejoin="round"/>
</g>
<defs>
<clipPath id="clip0_3_8">
<rect width="14" height="14" fill="white"/>
</clipPath>
</defs>
</svg>
