<svg width="1024" height="1024" viewBox="0 0 1024 1024" fill="none" xmlns="http://www.w3.org/2000/svg">
<path d="M831.872 340.864L512 652.672L192.128 340.864C186.413 335.282 178.741 332.157 170.752 332.157C162.763 332.157 155.091 335.282 149.376 340.864C146.609 343.575 144.41 346.812 142.91 350.383C141.409 353.955 140.636 357.79 140.636 361.664C140.636 365.538 141.409 369.373 142.91 372.945C144.41 376.516 146.609 379.753 149.376 382.464L489.664 714.24C495.64 720.065 503.655 723.325 512 723.325C520.345 723.325 528.36 720.065 534.336 714.24L874.624 382.528C877.411 379.815 879.626 376.57 881.138 372.987C882.651 369.404 883.43 365.554 883.43 361.664C883.43 357.774 882.651 353.924 881.138 350.341C879.626 346.757 877.411 343.513 874.624 340.8C868.909 335.218 861.237 332.093 853.248 332.093C845.259 332.093 837.587 335.218 831.872 340.8V340.864Z" fill="white"/>
</svg>
