<svg width="24" height="24" viewBox="0 0 24 24" fill="none" xmlns="http://www.w3.org/2000/svg">
<path d="M20.84 2.18L16.91 2.96L19.65 6.5L21.62 6.1L20.84 2.18ZM13.97 3.54L12 3.93L14.75 7.46L16.71 7.07L13.97 3.54ZM9.07 4.5L7.1 4.91L9.85 8.44L11.81 8.05L9.07 4.5ZM4.16 5.5L3.18 5.69C2.66038 5.79382 2.2032 6.0996 1.90884 6.54021C1.61448 6.98081 1.507 7.52022 1.61 8.04L2 10L6.9 9.03L4.16 5.5ZM2 10V20C2 20.5304 2.21071 21.0391 2.58579 21.4142C2.96086 21.7893 3.46957 22 4 22H20C21.11 22 22 21.11 22 20V10H2Z" fill="white"/>
</svg>
