<svg width="24" height="24" viewBox="0 0 24 24" fill="none" xmlns="http://www.w3.org/2000/svg">
<g clip-path="url(#clip0_8_20)">
<path d="M11.514 2.142L10.254 1.387L10.014 2.836C9.63196 5.124 8.06896 7.25 6.34496 8.744C2.96996 11.67 2.23096 14.85 3.27596 17.475C4.27596 19.987 6.81397 21.707 9.38997 21.994L9.98596 22.06C8.51196 21.159 7.56596 19.054 7.89596 17.481C8.22196 15.935 9.33397 14.487 11.47 13.151L12.547 12.479L12.949 13.684C13.186 14.396 13.596 14.968 14.013 15.549C14.213 15.829 14.416 16.112 14.602 16.413C15.245 17.458 15.415 18.62 15 19.773C14.622 20.821 13.999 21.645 13.14 22.102L14.11 21.994C16.528 21.725 18.303 20.898 19.456 19.515C20.599 18.144 21 16.379 21 14.5C21 12.75 20.281 10.946 19.433 9.445C18.439 7.687 17.142 6.227 15.726 4.812C15.481 5.302 15.5 5.5 14.996 6.287C14.3418 4.54879 13.1132 3.08633 11.514 2.142Z" fill="white"/>
</g>
<defs>
<clipPath id="clip0_8_20">
<rect width="24" height="24" fill="white"/>
</clipPath>
</defs>
</svg>
