<svg width="24" height="24" viewBox="0 0 24 24" fill="none" xmlns="http://www.w3.org/2000/svg">
<path d="M5 10.9C5.73984 9.86966 6.69603 9.01357 7.80158 8.3917C8.90713 7.76983 10.1353 7.39723 11.4 7.3V6C11.3967 5.71009 11.4565 5.42294 11.5752 5.15843C11.6939 4.89392 11.8687 4.65838 12.0875 4.46814C12.3063 4.2779 12.5638 4.13749 12.8422 4.05666C13.1207 3.97583 13.4134 3.95649 13.7 4C14.1 4 14.4 4.1 14.7 4.3L20.2 8.6C20.4496 8.79653 20.6514 9.04713 20.7901 9.33293C20.9289 9.61874 21.001 9.9323 21.001 10.25C21.001 10.5677 20.9289 10.8813 20.7901 11.1671C20.6514 11.4529 20.4496 11.7035 20.2 11.9L14.7 16.2C14.4234 16.4232 14.0922 16.5687 13.7407 16.6214C13.3892 16.6741 13.0299 16.6322 12.7 16.5C12.3327 16.3399 12.0219 16.0732 11.8079 15.7345C11.594 15.3957 11.4867 15.0005 11.5 14.6V13.6C6 15 5.2 19 5.2 19.3C5.15325 19.5293 5.02757 19.7349 4.84486 19.8811C4.66214 20.0272 4.43394 20.1047 4.2 20.1C3.97942 20.1101 3.7617 20.0469 3.5808 19.9203C3.39991 19.7937 3.26601 19.6107 3.2 19.4C2.85572 17.9381 2.83854 16.4181 3.1497 14.9488C3.46085 13.4794 4.09267 12.0969 5 10.9Z" fill="white"/>
</svg>
