<svg width="128" height="128" viewBox="0 0 128 128" fill="none" xmlns="http://www.w3.org/2000/svg">
<path d="M116.6 62.86H73.98C73.32 62.86 72.79 63.39 72.79 64.05V81.88C72.79 82.19 72.91 82.5 73.14 82.72C73.36 82.94 73.66 83.07 73.98 83.07L87.79 83.05C86.74 91.44 77.24 98.3 66.3 98.3C49.43 98.3 39 82.8 39 68.43C39 54.3 49.21 39.68 66.3 39.68C73.71 39.68 83.25 44.11 88.18 48.39C88.42 48.6 88.73 48.69 89.04 48.68C89.36 48.66 89.66 48.51 89.86 48.27L105.71 29.98C105.912 29.7452 106.016 29.4413 105.999 29.1319C105.982 28.8225 105.846 28.5315 105.62 28.32C95.48 18.92 81.88 13.95 66.3 13.95C33.8 13.95 10.21 36.86 10.21 68.42C10.21 99.99 33.8 122.9 66.3 122.9C115.31 122.9 117.79 73.86 117.79 64.03C117.79 63.39 117.26 62.86 116.6 62.86Z" fill="white"/>
</svg>
