<svg width="24" height="24" viewBox="0 0 24 24" fill="none" xmlns="http://www.w3.org/2000/svg">
<path fill-rule="evenodd" clip-rule="evenodd" d="M10.286 3.91C10.286 3.342 10.824 2.75 11.66 2.75C12.496 2.75 13.034 3.342 13.034 3.91C13.034 4.221 12.922 4.491 12.74 4.69C12.6165 4.82138 12.4898 4.94975 12.36 5.075L12.28 5.155C12.0958 5.33334 11.9193 5.51951 11.751 5.713C11.486 6.025 11.198 6.436 11.093 6.943C10.4552 7.04826 9.84904 7.29496 9.319 7.665L2.224 12.657C1.297 13.309 1.058 14.359 1.396 15.239C1.728 16.105 2.59 16.75 3.702 16.75H5.26C5.25 17.114 5.25 17.514 5.25 17.948V18.052C5.25 18.951 5.25 19.7 5.33 20.294C5.415 20.922 5.6 21.489 6.056 21.944C6.512 22.4 7.079 22.586 7.706 22.67C8.301 22.75 9.05 22.75 9.949 22.75H14.053C14.951 22.75 15.701 22.75 16.295 22.67C16.923 22.586 17.49 22.4 17.945 21.944C18.401 21.489 18.587 20.922 18.671 20.294C18.751 19.7 18.751 18.951 18.751 18.052V17.948C18.751 17.514 18.751 17.114 18.741 16.75H20.298C21.423 16.75 22.288 16.093 22.614 15.217C22.944 14.326 22.687 13.269 21.737 12.629L14.304 7.619C13.8163 7.29185 13.2672 7.0673 12.69 6.959C12.74 6.878 12.808 6.787 12.895 6.685C13.021 6.536 13.169 6.387 13.335 6.221L13.41 6.149C13.55 6.009 13.705 5.857 13.845 5.704C14.288 5.224 14.535 4.589 14.535 3.909C14.535 2.367 13.171 1.25 11.661 1.25C10.151 1.25 8.786 2.367 8.786 3.91C8.786 4.10891 8.86502 4.29968 9.00567 4.44033C9.14632 4.58098 9.33709 4.66 9.536 4.66C9.73492 4.66 9.92568 4.58098 10.0663 4.44033C10.207 4.29968 10.286 4.10891 10.286 3.91ZM18.586 15.25H20.297C20.806 15.25 21.103 14.973 21.207 14.695C21.304 14.431 21.254 14.113 20.897 13.873L13.465 8.863C12.9749 8.5383 12.3978 8.36988 11.81 8.38C11.2282 8.38296 10.6608 8.5614 10.182 8.892L3.087 13.883C2.741 14.126 2.696 14.441 2.797 14.702C2.902 14.977 3.2 15.25 3.702 15.25H5.414C5.523 14.803 5.713 14.398 6.055 14.056C6.511 13.6 7.078 13.414 7.705 13.33C8.3 13.25 9.049 13.25 9.948 13.25H14.052C14.95 13.25 15.7 13.25 16.294 13.33C16.922 13.414 17.489 13.6 17.944 14.056C18.287 14.398 18.477 14.803 18.586 15.25ZM7.116 15.116C7.246 14.986 7.444 14.879 7.906 14.816C8.388 14.752 9.036 14.75 10 14.75H14C14.964 14.75 15.611 14.752 16.094 14.816C16.556 14.879 16.754 14.986 16.884 15.116C17.014 15.246 17.121 15.444 17.184 15.906C17.248 16.388 17.25 17.036 17.25 18C17.25 18.964 17.248 19.612 17.183 20.095C17.121 20.556 17.014 20.754 16.883 20.884C16.753 21.014 16.556 21.121 16.094 21.184C15.611 21.248 14.964 21.25 14 21.25H10C9.036 21.25 8.388 21.248 7.905 21.183C7.444 21.121 7.246 21.014 7.115 20.883C6.985 20.753 6.878 20.556 6.816 20.095C6.751 19.612 6.75 18.964 6.75 18C6.75 17.036 6.751 16.388 6.816 15.905C6.878 15.444 6.986 15.246 7.116 15.116Z" fill="white"/>
</svg>
