<svg width="32" height="32" viewBox="0 0 32 32" fill="none" xmlns="http://www.w3.org/2000/svg">
<path d="M11 24H21V26H11V24ZM13 28H19V30H13V28ZM16 2C13.3478 2 10.8043 3.05357 8.92893 4.92893C7.05357 6.8043 6 9.34784 6 12C5.93237 13.4533 6.21077 14.902 6.8123 16.2267C7.41382 17.5514 8.32127 18.7144 9.46 19.62C10.46 20.55 11 21.08 11 22H13C13 20.16 11.89 19.13 10.81 18.14C9.87536 17.4243 9.13047 16.4903 8.64058 15.4198C8.15069 14.3494 7.93074 13.1752 8 12C8 9.87827 8.84285 7.84344 10.3431 6.34315C11.8434 4.84285 13.8783 4 16 4C18.1217 4 20.1566 4.84285 21.6569 6.34315C23.1571 7.84344 24 9.87827 24 12C24.0681 13.176 23.8466 14.3508 23.355 15.4213C22.8633 16.4918 22.1165 17.4253 21.18 18.14C20.11 19.14 19 20.14 19 22H21C21 21.08 21.53 20.55 22.54 19.61C23.6779 18.706 24.585 17.5447 25.1865 16.2217C25.788 14.8987 26.0668 13.4518 26 12C26 10.6868 25.7413 9.38642 25.2388 8.17317C24.7362 6.95991 23.9997 5.85752 23.0711 4.92893C22.1425 4.00035 21.0401 3.26375 19.8268 2.7612C18.6136 2.25866 17.3132 2 16 2Z" fill="white"/>
</svg>
