<svg width="24" height="20" viewBox="0 0 24 20" fill="none" xmlns="http://www.w3.org/2000/svg">
<path d="M18.264 0.736C17.522 0.721 5.58199 2.261 4.13699 2.803C3.05799 3.206 2.21199 3.725 1.54699 4.393C0.465995 5.479 0.257995 6.537 0.429995 8.395C0.585995 10.077 1.35999 15.662 1.74599 16.816C2.17299 18.093 2.95899 19.073 4.25399 19.213C8.20599 19.645 9.13899 17.435 18.328 17.455C21.112 17.462 22.495 16.225 23.072 15.146C23.746 13.879 23.616 12.21 23.605 11.328C23.59 10.171 22.935 4.695 22.619 3.844C22.415 3.294 21.985 2.291 21.186 1.68C20.163 0.898 19.327 0.758 18.264 0.736ZM9.54399 6.713C9.71399 6.704 9.94199 6.779 10.034 6.809C10.747 7.038 14.324 8.307 15.437 8.877C15.47 8.894 15.507 8.909 15.543 8.924C15.702 8.991 15.92 9.084 15.923 9.355C15.926 9.613 15.731 9.732 15.574 9.828L15.486 9.883C15.255 10.04 15.026 10.198 14.796 10.357C14.265 10.727 11.168 12.869 11.168 12.869C10.904 13.072 10.408 13.391 10.218 13.291C10.03 13.188 9.96499 12.496 9.91999 12.161L9.90799 12.086C9.85199 11.682 9.40699 7.837 9.35499 7.414C9.33999 7.294 9.26699 6.854 9.40199 6.754C9.4447 6.7268 9.49437 6.71256 9.54499 6.713M17.967 1.159H17.977C18.994 1.179 19.79 1.316 20.765 2.06C21.529 2.643 21.941 3.599 22.134 4.125C22.434 4.937 23.06 10.164 23.075 11.268C23.085 12.108 23.21 13.701 22.565 14.91C22.018 15.936 20.701 17.112 18.059 17.112H17.918C10.038 17.112 8.58799 18.841 5.55699 18.841C5.25899 18.841 4.94599 18.824 4.61099 18.789C3.37599 18.653 2.62699 17.719 2.21999 16.501C1.85099 15.399 1.11299 10.072 0.962995 8.466C0.797995 6.694 0.997995 5.686 2.02899 4.649C2.66199 4.011 3.46999 3.516 4.50199 3.132C5.86999 2.617 17.163 1.159 17.967 1.159ZM17.966 0.232C17.456 0.232 14.118 0.646 11.324 1.032C8.52699 1.419 5.02099 1.947 4.18399 2.259C3.03099 2.691 2.11399 3.256 1.38799 3.987C0.0499947 5.332 -0.113005 6.731 0.0539948 8.553C0.183995 9.965 0.928995 15.528 1.35599 16.8C1.92999 18.518 3.04999 19.55 4.50999 19.71C4.86999 19.749 5.21399 19.768 5.55499 19.768C6.83499 19.768 7.84999 19.491 9.02499 19.171C10.873 18.666 13.172 18.04 17.918 18.04H18.058C19.22 18.04 22.066 17.778 23.361 15.353C24.054 14.057 24.013 12.483 23.99 11.543L23.983 11.255C23.968 10.133 23.338 4.76 22.984 3.798C22.574 2.687 22.01 1.853 21.309 1.318C20.166 0.445 19.194 0.256 17.996 0.232H17.987H17.966Z" fill="#FF0000"/>
</svg>
