<svg width="512" height="512" viewBox="0 0 512 512" fill="none" xmlns="http://www.w3.org/2000/svg">
<path d="M256 48C141.31 48 48 141.31 48 256C48 370.69 141.31 464 256 464C370.69 464 464 370.69 464 256C464 141.31 370.69 48 256 48ZM208 176C208.037 163.281 213.106 151.093 222.1 142.1C231.093 133.106 243.281 128.037 256 128C268.719 128.037 280.907 133.106 289.9 142.1C298.894 151.093 303.963 163.281 304 176V240C303.963 252.719 298.894 264.907 289.9 273.9C280.907 282.894 268.719 287.963 256 288C243.281 287.963 231.093 282.894 222.1 273.9C213.106 264.907 208.037 252.719 208 240V176ZM352 248.22C352 271.58 341.06 293.83 321.21 310.88C307.183 322.92 290.194 330.991 272 334.26V352H304V384H208V352H240V334.26C221.806 330.991 204.817 322.92 190.79 310.88C170.94 293.83 160 271.58 160 248.22V208.3H192V248.22C192 273.88 220 303.7 256 303.7C285.6 303.7 320 279.47 320 248.22V208.3H352V248.22Z" fill="black"/>
</svg>
