<svg width="24" height="24" viewBox="0 0 24 24" fill="none" xmlns="http://www.w3.org/2000/svg">
<path fill-rule="evenodd" clip-rule="evenodd" d="M8.5 18.896V16H6C5.73478 16 5.48043 15.8946 5.29289 15.7071C5.10536 15.5196 5 15.2652 5 15V7C5 6.73478 5.10536 6.48043 5.29289 6.29289C5.48043 6.10536 5.73478 6 6 6H18C18.2652 6 18.5196 6.10536 18.7071 6.29289C18.8946 6.48043 19 6.73478 19 7V15C19 15.2652 18.8946 15.5196 18.7071 15.7071C18.5196 15.8946 18.2652 16 18 16H12L8.927 19.073C8.89204 19.1081 8.84745 19.1319 8.7989 19.1416C8.75034 19.1513 8.7 19.1464 8.65427 19.1274C8.60853 19.1084 8.56945 19.0763 8.54199 19.0351C8.51453 18.9939 8.49991 18.9455 8.5 18.896ZM8 12.5C8 12.3674 8.05268 12.2402 8.14645 12.1464C8.24021 12.0527 8.36739 12 8.5 12H15.5C15.6326 12 15.7598 12.0527 15.8536 12.1464C15.9473 12.2402 16 12.3674 16 12.5C16 12.6326 15.9473 12.7598 15.8536 12.8536C15.7598 12.9473 15.6326 13 15.5 13H8.5C8.36739 13 8.24021 12.9473 8.14645 12.8536C8.05268 12.7598 8 12.6326 8 12.5ZM8.5 9C8.36739 9 8.24021 9.05268 8.14645 9.14645C8.05268 9.24021 8 9.36739 8 9.5C8 9.63261 8.05268 9.75979 8.14645 9.85355C8.24021 9.94732 8.36739 10 8.5 10H15.5C15.6326 10 15.7598 9.94732 15.8536 9.85355C15.9473 9.75979 16 9.63261 16 9.5C16 9.36739 15.9473 9.24021 15.8536 9.14645C15.7598 9.05268 15.6326 9 15.5 9H8.5Z" fill="#FFF6F6"/>
</svg>
