<svg width="24" height="30" viewBox="0 0 24 30" fill="none" xmlns="http://www.w3.org/2000/svg">
<g clip-path="url(#clip0_1_2)" filter="url(#filter0_d_1_2)">
<path fill-rule="evenodd" clip-rule="evenodd" d="M18.633 9.177L14 10.72V17.5C13.9999 18.5032 13.6646 19.4776 13.0474 20.2684C12.4301 21.0593 11.5663 21.6211 10.5932 21.8649C9.62004 22.1086 8.59336 22.0201 7.67625 21.6135C6.75913 21.207 6.00417 20.5056 5.53129 19.6208C5.05841 18.7361 4.89474 17.7187 5.06626 16.7303C5.23779 15.7418 5.73468 14.8391 6.478 14.1654C7.22133 13.4917 8.16846 13.0857 9.16893 13.0119C10.1694 12.938 11.1659 13.2007 12 13.758V6.442C12 5.8124 12.1981 5.19875 12.5662 4.68797C12.9343 4.17719 13.4537 3.79516 14.051 3.596L18.026 2.271C18.2515 2.19591 18.4915 2.17546 18.7264 2.21133C18.9614 2.2472 19.1844 2.33838 19.3772 2.47734C19.5699 2.6163 19.7269 2.79908 19.8352 3.01061C19.9435 3.22213 20 3.45636 20 3.694V7.279C20.0002 7.69881 19.8682 8.10802 19.6229 8.44867C19.3775 8.78932 19.0312 9.04413 18.633 9.177ZM14.683 5.493L18 4.387V7.28L14 8.614V6.442C13.9997 6.23186 14.0657 6.02699 14.1885 5.85645C14.3112 5.68592 14.4846 5.5584 14.684 5.492L14.683 5.493ZM12 17.5C12 18.163 11.7366 18.7989 11.2678 19.2678C10.7989 19.7366 10.163 20 9.5 20C8.83696 20 8.20107 19.7366 7.73223 19.2678C7.26339 18.7989 7 18.163 7 17.5C7 16.837 7.26339 16.2011 7.73223 15.7322C8.20107 15.2634 8.83696 15 9.5 15C10.163 15 10.7989 15.2634 11.2678 15.7322C11.7366 16.2011 12 16.837 12 17.5Z" fill="white"/>
</g>
<defs>
<filter id="filter0_d_1_2" x="-4" y="0" width="32" height="32" filterUnits="userSpaceOnUse" color-interpolation-filters="sRGB">
<feFlood flood-opacity="0" result="BackgroundImageFix"/>
<feColorMatrix in="SourceAlpha" type="matrix" values="0 0 0 0 0 0 0 0 0 0 0 0 0 0 0 0 0 0 127 0" result="hardAlpha"/>
<feOffset dy="4"/>
<feGaussianBlur stdDeviation="2"/>
<feComposite in2="hardAlpha" operator="out"/>
<feColorMatrix type="matrix" values="0 0 0 0 0 0 0 0 0 0 0 0 0 0 0 0 0 0 0.25 0"/>
<feBlend mode="normal" in2="BackgroundImageFix" result="effect1_dropShadow_1_2"/>
<feBlend mode="normal" in="SourceGraphic" in2="effect1_dropShadow_1_2" result="shape"/>
</filter>
<clipPath id="clip0_1_2">
<rect width="24" height="24" fill="white"/>
</clipPath>
</defs>
</svg>
