<svg width="16" height="16" viewBox="0 0 16 16" fill="none" xmlns="http://www.w3.org/2000/svg">
<g clip-path="url(#clip0_1_15)">
<path fill-rule="evenodd" clip-rule="evenodd" d="M4.397 2.59C5.73647 1.69819 7.35914 1.33494 8.95099 1.57055C10.5428 1.80616 11.9907 2.62387 13.0144 3.86546C14.0381 5.10705 14.5649 6.68423 14.4928 8.29181C14.4206 9.89939 13.7548 11.4231 12.624 12.568C12.488 12.7102 12.4133 12.9002 12.4162 13.097C12.419 13.2938 12.499 13.4816 12.639 13.6199C12.779 13.7582 12.9678 13.8359 13.1646 13.8363C13.3614 13.8367 13.5504 13.7597 13.691 13.622C14.8001 12.4994 15.5524 11.0738 15.8533 9.52458C16.1541 7.97539 15.9901 6.37183 15.3817 4.91567C14.7734 3.45951 13.748 2.2158 12.4345 1.34102C11.121 0.46625 9.57813 -0.000500679 8 -0.000500679C6.42188 -0.000500679 4.879 0.46625 3.56552 1.34102C2.25203 2.2158 1.2266 3.45951 0.618269 4.91567C0.00993574 6.37183 -0.15413 7.97539 0.146715 9.52458C0.447561 11.0738 1.19988 12.4994 2.309 13.622C2.37778 13.6939 2.46018 13.7514 2.55141 13.7912C2.64264 13.831 2.74087 13.8522 2.84038 13.8536C2.93989 13.855 3.03868 13.8366 3.13101 13.7995C3.22333 13.7623 3.30734 13.7072 3.37814 13.6372C3.44894 13.5673 3.50512 13.484 3.54339 13.3921C3.58166 13.3003 3.60127 13.2017 3.60107 13.1022C3.60087 13.0027 3.58087 12.9042 3.54223 12.8125C3.50359 12.7208 3.44708 12.6377 3.376 12.568C2.70233 11.8861 2.18782 11.0635 1.86935 10.1594C1.55089 9.25527 1.43634 8.29188 1.53391 7.33827C1.63149 6.38466 1.93878 5.46444 2.43377 4.64354C2.92875 3.82264 3.59917 3.12137 4.397 2.59ZM8 4.5C8.6891 4.50009 9.36283 4.7036 9.93675 5.08501C10.5107 5.46642 10.9592 6.00875 11.2262 6.64403C11.4932 7.27931 11.5667 7.97926 11.4375 8.65614C11.3083 9.33301 10.9822 9.9567 10.5 10.449C10.4311 10.5194 10.3767 10.6027 10.3399 10.6941C10.3031 10.7855 10.2847 10.8833 10.2858 10.9818C10.2868 11.0803 10.3072 11.1777 10.3458 11.2683C10.3845 11.3589 10.4406 11.4411 10.511 11.51C10.5814 11.5789 10.6647 11.6333 10.7561 11.6701C10.8475 11.7069 10.9453 11.7253 11.0438 11.7242C11.1423 11.7232 11.2397 11.7028 11.3303 11.6642C11.4209 11.6255 11.5031 11.5694 11.572 11.499C12.2609 10.7957 12.7268 9.90464 12.9114 8.9376C13.0959 7.97056 12.9909 6.97056 12.6094 6.06297C12.228 5.15539 11.5871 4.38061 10.7671 3.83578C9.94708 3.29095 8.9845 3.00031 8 3.00031C7.01551 3.00031 6.05293 3.29095 5.23294 3.83578C4.41295 4.38061 3.77205 5.15539 3.39059 6.06297C3.00913 6.97056 2.90409 7.97056 3.08864 8.9376C3.27319 9.90464 3.73912 10.7957 4.428 11.499C4.56779 11.638 4.75669 11.7164 4.95384 11.7172C5.15099 11.718 5.34052 11.6412 5.48143 11.5033C5.62234 11.3654 5.70329 11.1776 5.70676 10.9804C5.71024 10.7833 5.63596 10.5928 5.5 10.45C5.0175 9.95774 4.69108 9.33397 4.56171 8.65693C4.43233 7.97988 4.50575 7.27971 4.77276 6.64423C5.03977 6.00874 5.48848 5.46625 6.0626 5.0848C6.63673 4.70334 7.31071 4.4999 8 4.5ZM10 8C10 8.53043 9.78929 9.03914 9.41422 9.41421C9.03914 9.78929 8.53044 10 8 10C7.46957 10 6.96086 9.78929 6.58579 9.41421C6.21072 9.03914 6 8.53043 6 8C6 7.46957 6.21072 6.96086 6.58579 6.58579C6.96086 6.21071 7.46957 6 8 6C8.53044 6 9.03914 6.21071 9.41422 6.58579C9.78929 6.96086 10 7.46957 10 8ZM8.75 12.25C8.75 12.0511 8.67099 11.8603 8.53033 11.7197C8.38968 11.579 8.19892 11.5 8 11.5C7.80109 11.5 7.61033 11.579 7.46967 11.7197C7.32902 11.8603 7.25 12.0511 7.25 12.25V15.25C7.25 15.4489 7.32902 15.6397 7.46967 15.7803C7.61033 15.921 7.80109 16 8 16C8.19892 16 8.38968 15.921 8.53033 15.7803C8.67099 15.6397 8.75 15.4489 8.75 15.25V12.25Z" fill="white"/>
</g>
<defs>
<clipPath id="clip0_1_15">
<rect width="16" height="16" fill="white"/>
</clipPath>
</defs>
</svg>
