<svg width="21" height="20" viewBox="0 0 21 20" fill="none" xmlns="http://www.w3.org/2000/svg">
<path d="M18.9 10.66C18.7397 10.4775 18.6513 10.2429 18.6513 10C18.6513 9.75709 18.7397 9.52249 18.9 9.34L20.18 7.9C20.321 7.74267 20.4086 7.5447 20.4302 7.33451C20.4517 7.12431 20.4062 6.91269 20.3 6.73L18.3 3.27C18.1949 3.08752 18.0349 2.94288 17.8427 2.85669C17.6506 2.7705 17.4362 2.74716 17.23 2.79L15.35 3.17C15.1108 3.21943 14.8617 3.17959 14.6499 3.058C14.438 2.93641 14.278 2.74148 14.2 2.51L13.59 0.68C13.5229 0.481379 13.3951 0.308865 13.2246 0.186842C13.0541 0.064819 12.8496 -0.000541143 12.64 1.851e-08H8.63999C8.42192 -0.011382 8.20612 0.0489264 8.02555 0.171714C7.84498 0.294502 7.70957 0.473019 7.63999 0.68L7.07999 2.51C7.00199 2.74148 6.84196 2.93641 6.6301 3.058C6.41824 3.17959 6.1692 3.21943 5.92999 3.17L3.99999 2.79C3.80454 2.76238 3.60529 2.79322 3.42734 2.87864C3.24938 2.96406 3.10069 3.10023 2.99999 3.27L0.999988 6.73C0.891148 6.91065 0.84221 7.12109 0.86017 7.33122C0.878131 7.54136 0.96207 7.74044 1.09999 7.9L2.36999 9.34C2.53031 9.52249 2.61872 9.75709 2.61872 10C2.61872 10.2429 2.53031 10.4775 2.36999 10.66L1.09999 12.1C0.96207 12.2596 0.878131 12.4586 0.86017 12.6688C0.84221 12.8789 0.891148 13.0894 0.999988 13.27L2.99999 16.73C3.10509 16.9125 3.26511 17.0571 3.45724 17.1433C3.64937 17.2295 3.86381 17.2528 4.06999 17.21L5.94999 16.83C6.1892 16.7806 6.43824 16.8204 6.6501 16.942C6.86196 17.0636 7.02199 17.2585 7.09999 17.49L7.70999 19.32C7.77957 19.527 7.91498 19.7055 8.09555 19.8283C8.27612 19.9511 8.49192 20.0114 8.70999 20H12.71C12.9196 20.0005 13.1241 19.9352 13.2946 19.8132C13.4651 19.6911 13.5929 19.5186 13.66 19.32L14.27 17.49C14.348 17.2585 14.508 17.0636 14.7199 16.942C14.9317 16.8204 15.1808 16.7806 15.42 16.83L17.3 17.21C17.5062 17.2528 17.7206 17.2295 17.9127 17.1433C18.1049 17.0571 18.2649 16.9125 18.37 16.73L20.37 13.27C20.4762 13.0873 20.5217 12.8757 20.5002 12.6655C20.4786 12.4553 20.391 12.2573 20.25 12.1L18.9 10.66ZM17.41 12L18.21 12.9L16.93 15.12L15.75 14.88C15.0298 14.7328 14.2806 14.8551 13.6446 15.2238C13.0086 15.5925 12.5301 16.1818 12.3 16.88L11.92 18H9.35999L8.99999 16.86C8.76984 16.1618 8.29137 15.5725 7.65539 15.2038C7.01942 14.8351 6.27021 14.7128 5.54999 14.86L4.36999 15.1L3.06999 12.89L3.86999 11.99C4.36194 11.44 4.63392 10.7279 4.63392 9.99C4.63392 9.25207 4.36194 8.54002 3.86999 7.99L3.06999 7.09L4.34999 4.89L5.52999 5.13C6.25021 5.27722 6.99942 5.15488 7.63539 4.7862C8.27137 4.41752 8.74984 3.82816 8.97999 3.13L9.35999 2H11.92L12.3 3.14C12.5301 3.83816 13.0086 4.42752 13.6446 4.7962C14.2806 5.16488 15.0298 5.28722 15.75 5.14L16.93 4.9L18.21 7.12L17.41 8.02C16.9236 8.56876 16.655 9.27668 16.655 10.01C16.655 10.7433 16.9236 11.4512 17.41 12ZM10.64 6C9.84886 6 9.0755 6.2346 8.41771 6.67412C7.75991 7.11365 7.24722 7.73836 6.94447 8.46927C6.64172 9.20017 6.56251 10.0044 6.71685 10.7804C6.87119 11.5563 7.25215 12.269 7.81156 12.8284C8.37097 13.3878 9.0837 13.7688 9.85963 13.9231C10.6356 14.0775 11.4398 13.9983 12.1707 13.6955C12.9016 13.3928 13.5263 12.8801 13.9659 12.2223C14.4054 11.5645 14.64 10.7911 14.64 10C14.64 8.93913 14.2186 7.92172 13.4684 7.17157C12.7183 6.42143 11.7009 6 10.64 6ZM10.64 12C10.2444 12 9.85775 11.8827 9.52885 11.6629C9.19995 11.4432 8.9436 11.1308 8.79223 10.7654C8.64085 10.3999 8.60125 9.99778 8.67842 9.60982C8.75559 9.22186 8.94607 8.86549 9.22577 8.58579C9.50548 8.30608 9.86185 8.1156 10.2498 8.03843C10.6378 7.96126 11.0399 8.00087 11.4054 8.15224C11.7708 8.30362 12.0832 8.55996 12.3029 8.88886C12.5227 9.21776 12.64 9.60444 12.64 10C12.64 10.5304 12.4293 11.0391 12.0542 11.4142C11.6791 11.7893 11.1704 12 10.64 12Z" fill="white"/>
</svg>
