<svg width="24" height="24" viewBox="0 0 24 24" fill="none" xmlns="http://www.w3.org/2000/svg">
<path d="M18.931 9.99L17.49 9.389L19.207 8.476C19.7308 8.2017 20.1951 7.82643 20.5731 7.37182C20.9512 6.91722 21.2355 6.39228 21.4097 5.82726C21.584 5.26225 21.6446 4.66833 21.5882 4.07977C21.5318 3.4912 21.3594 2.91963 21.081 2.398C20.5218 1.342 19.5661 0.55133 18.4241 0.199898C17.282 -0.151535 16.0471 -0.0349537 14.991 0.524L4.792 5.929C4.03464 6.3275 3.40648 6.93352 2.98108 7.6761C2.55568 8.41869 2.35065 9.2671 2.39 10.122C2.43085 10.9554 2.70153 11.7612 3.17207 12.4502C3.6426 13.1393 4.29465 13.6847 5.056 14.026C5.092 14.038 6.498 14.626 6.498 14.626L4.792 15.527C4.07609 15.9131 3.47794 16.4857 3.06089 17.1841C2.64385 17.8824 2.42344 18.6806 2.423 19.494C2.42879 20.6875 2.90552 21.8304 3.74952 22.6742C4.59353 23.518 5.73654 23.9945 6.93 24C7.655 24 8.367 23.826 9.01 23.492L19.22 18.086C19.9758 17.6869 20.602 17.0805 21.0254 16.338C21.4487 15.5955 21.6515 14.7477 21.61 13.894C21.5676 13.0594 21.295 12.2529 20.8223 11.5638C20.3496 10.8747 19.6943 10.33 18.931 9.99ZM9.597 15.19V8.824L15.604 12.008L9.597 15.19Z" fill="white"/>
</svg>
