<svg width="178" height="180" viewBox="0 0 178 180" fill="none" xmlns="http://www.w3.org/2000/svg">
<path d="M76.8842 119.109L111.546 91.5645C111.777 91.3785 111.964 91.142 112.093 90.8726C112.222 90.6032 112.288 90.3079 112.288 90.0088C112.288 89.7097 112.222 89.4144 112.093 89.145C111.964 88.8757 111.777 88.6391 111.546 88.4531L76.8842 60.8906C75.5978 59.8711 73.7031 60.7852 73.7031 62.4375V117.545C73.7031 119.197 75.5978 120.129 76.8842 119.109Z" fill="white"/>
<path d="M152.969 19.6875H25.0312C21.9545 19.6875 19.4688 22.2012 19.4688 25.3125V154.688C19.4688 157.799 21.9545 160.312 25.0312 160.312H152.969C156.046 160.312 158.531 157.799 158.531 154.688V25.3125C158.531 22.2012 156.046 19.6875 152.969 19.6875ZM146.016 147.656H31.9844V32.3438H146.016V147.656Z" fill="white"/>
</svg>
