<svg width="16" height="16" viewBox="0 0 16 16" fill="none" xmlns="http://www.w3.org/2000/svg">
<path fill-rule="evenodd" clip-rule="evenodd" d="M7.19899 2H8.79999C8.90999 2 8.99899 2.089 8.99899 2.199C8.99899 4.007 10.957 5.138 12.523 4.233C12.5686 4.20689 12.6228 4.19991 12.6736 4.21359C12.7243 4.22727 12.7676 4.26049 12.794 4.306L13.596 5.694C13.6221 5.73965 13.6291 5.79378 13.6154 5.84456C13.6017 5.89534 13.5685 5.93864 13.523 5.965C11.957 6.87 11.957 9.13 13.523 10.035C13.5685 10.0614 13.6017 10.1047 13.6154 10.1554C13.6291 10.2062 13.6221 10.2603 13.596 10.306L12.794 11.694C12.7676 11.7395 12.7243 11.7727 12.6736 11.7864C12.6228 11.8001 12.5686 11.7931 12.523 11.767C10.958 10.862 8.99999 11.993 8.99999 13.8C8.99999 13.91 8.91099 13.999 8.80099 13.999H7.19999C7.17386 13.9991 7.14796 13.9941 7.12376 13.9842C7.09957 13.9744 7.07756 13.9598 7.05899 13.9414C7.04041 13.923 7.02565 13.9012 7.01552 13.8771C7.0054 13.853 7.00012 13.8271 6.99999 13.801C6.99999 11.993 5.04199 10.862 3.47599 11.767C3.45335 11.7801 3.42834 11.7886 3.40241 11.792C3.37647 11.7954 3.35012 11.7937 3.32486 11.7869C3.2996 11.7801 3.27592 11.7684 3.25518 11.7525C3.23444 11.7365 3.21705 11.7167 3.20399 11.694L2.40399 10.306C2.3778 10.2605 2.37067 10.2064 2.38416 10.1557C2.39764 10.1049 2.43066 10.0615 2.47599 10.035C4.04199 9.13 4.04199 6.87 2.47599 5.965C2.43049 5.93864 2.39726 5.89534 2.38358 5.84456C2.36991 5.79378 2.37688 5.73965 2.40299 5.694L3.20399 4.306C3.21705 4.28333 3.23444 4.26346 3.25518 4.24752C3.27592 4.23159 3.2996 4.21989 3.32486 4.21311C3.35012 4.20633 3.37647 4.2046 3.40241 4.20801C3.42834 4.21142 3.45335 4.21991 3.47599 4.233C5.04199 5.138 6.99999 4.007 6.99999 2.2C6.99999 2.09 7.08899 2 7.19899 2ZM5.49999 2.199C5.49999 1.26 6.25999 0.5 7.19899 0.5H8.79999C9.73799 0.5 10.499 1.26 10.499 2.199C10.4993 2.34796 10.5387 2.49423 10.6134 2.62316C10.688 2.75208 10.7952 2.85912 10.9242 2.93356C11.0533 3.008 11.1996 3.04723 11.3486 3.0473C11.4975 3.04738 11.6439 3.00831 11.773 2.934C12.1632 2.70899 12.6267 2.64811 13.0618 2.76474C13.4968 2.88138 13.8677 3.16598 14.093 3.556L14.895 4.944C15.364 5.756 15.085 6.795 14.273 7.264C14.1438 7.33862 14.0366 7.44591 13.962 7.57511C13.8875 7.7043 13.8482 7.85084 13.8482 8C13.8482 8.14916 13.8875 8.2957 13.962 8.42489C14.0366 8.55409 14.1438 8.66138 14.273 8.736C14.6628 8.96147 14.9472 9.33239 15.0639 9.76735C15.1805 10.2023 15.1197 10.6658 14.895 11.056L14.093 12.444C13.8677 12.834 13.4968 13.1186 13.0618 13.2353C12.6267 13.3519 12.1632 13.291 11.773 13.066C11.6439 12.9917 11.4975 12.9526 11.3486 12.9527C11.1996 12.9528 11.0533 12.992 10.9242 13.0664C10.7952 13.1409 10.688 13.2479 10.6134 13.3768C10.5387 13.5058 10.4993 13.652 10.499 13.801C10.499 14.739 9.73899 15.5 8.79999 15.5H7.19999C6.26199 15.5 5.50099 14.74 5.50099 13.801C5.5007 13.652 5.46126 13.5058 5.38662 13.3768C5.31199 13.2479 5.20479 13.1409 5.07576 13.0664C4.94673 12.992 4.8004 12.9528 4.65144 12.9527C4.50247 12.9526 4.3561 12.9917 4.22699 13.066C4.03383 13.1775 3.82059 13.2499 3.59944 13.2791C3.37829 13.3082 3.15358 13.2934 2.93813 13.2357C2.72268 13.1779 2.52073 13.0782 2.3438 12.9424C2.16687 12.8066 2.01845 12.6372 1.90699 12.444L1.10499 11.056C0.879981 10.6658 0.819101 10.2023 0.935737 9.76724C1.05237 9.3322 1.33698 8.96128 1.72699 8.736C1.85615 8.66138 1.9634 8.55409 2.03797 8.42489C2.11253 8.2957 2.15178 8.14916 2.15178 8C2.15178 7.85084 2.11253 7.7043 2.03797 7.57511C1.9634 7.44591 1.85615 7.33862 1.72699 7.264C1.33698 7.03872 1.05237 6.6678 0.935737 6.23276C0.819101 5.79772 0.879981 5.33417 1.10499 4.944L1.90599 3.556C2.13127 3.16598 2.5022 2.88138 2.93724 2.76474C3.37227 2.64811 3.83582 2.70899 4.22599 2.934C4.35503 3.00827 4.50131 3.04734 4.65019 3.0473C4.79907 3.04727 4.94533 3.00814 5.07433 2.93381C5.20333 2.85949 5.31055 2.75259 5.38525 2.62381C5.45995 2.49502 5.49952 2.34888 5.49999 2.2V2.199ZM10.5 8.866C10.652 8.77823 10.7782 8.65199 10.866 8.49998C10.9537 8.34796 11 8.17553 11 8C11 7.82447 10.9537 7.65204 10.866 7.50002C10.7782 7.34801 10.652 7.22177 10.5 7.134L7.49999 5.402C7.34798 5.31423 7.17553 5.26803 7 5.26803C6.82447 5.26802 6.65202 5.31423 6.5 5.40199C6.34799 5.48976 6.22175 5.61599 6.13398 5.76801C6.04621 5.92002 6 6.09247 5.99999 6.268V9.732C6 9.90753 6.04621 10.08 6.13398 10.232C6.22175 10.384 6.34799 10.5102 6.5 10.598C6.65202 10.6858 6.82447 10.732 7 10.732C7.17553 10.732 7.34798 10.6858 7.49999 10.598L10.5 8.866Z" fill="#FF0000"/>
</svg>
