<svg width="127" height="147" viewBox="0 0 127 147" fill="none" xmlns="http://www.w3.org/2000/svg">
<path d="M100.542 18.375H26.4583C20.6375 18.375 15.875 23.8875 15.875 30.625V116.375C15.875 123.113 20.6375 128.625 26.4583 128.625H100.542C106.362 128.625 111.125 123.113 111.125 116.375V30.625C111.125 23.8875 106.362 18.375 100.542 18.375ZM37.0417 42.875H47.625V55.125H37.0417V42.875ZM37.0417 67.375H47.625V79.625H37.0417V67.375ZM37.0417 91.875H47.625V104.125H37.0417V91.875ZM89.9583 104.125H58.2083V91.875H89.9583V104.125ZM89.9583 79.625H58.2083V67.375H89.9583V79.625ZM89.9583 55.125H58.2083V42.875H89.9583V55.125Z" fill="#FF0202"/>
</svg>
