<svg width="434" height="355" viewBox="0 0 434 355" fill="none" xmlns="http://www.w3.org/2000/svg">
<path d="M155.969 250.996H106.805V210.781C106.805 209.256 105.279 208.008 103.414 208.008H83.0703C81.2055 208.008 79.6797 209.256 79.6797 210.781V250.996H30.5156C28.6508 250.996 27.125 252.244 27.125 253.77V270.41C27.125 271.936 28.6508 273.184 30.5156 273.184H79.6797V313.398C79.6797 314.924 81.2055 316.172 83.0703 316.172H103.414C105.279 316.172 106.805 314.924 106.805 313.398V273.184H155.969C157.834 273.184 159.359 271.936 159.359 270.41V253.77C159.359 252.244 157.834 250.996 155.969 250.996Z" fill="white"/>
<path d="M386.531 104.801L332.281 130.352V77.6562C332.281 65.4185 320.117 55.4688 305.156 55.4688H54.25C39.2889 55.4688 27.125 65.4185 27.125 77.6562V199.688H57.6406V80.4297H301.766V274.57H189.875V299.531H305.156C320.117 299.531 332.281 289.582 332.281 277.344V224.648L386.531 250.199C395.559 254.463 406.875 249.124 406.875 240.63V114.404C406.875 105.876 395.559 100.537 386.531 104.801ZM376.359 216.675L332.281 195.943V159.091L376.359 138.325V216.675Z" fill="white"/>
<path d="M135.625 124.805C137.49 124.805 139.016 123.557 139.016 122.031V105.391C139.016 103.865 137.49 102.617 135.625 102.617H88.1562C86.2914 102.617 84.7656 103.865 84.7656 105.391V122.031C84.7656 123.557 86.2914 124.805 88.1562 124.805H135.625Z" fill="white"/>
</svg>
