<svg width="24" height="24" viewBox="0 0 24 24" fill="none" xmlns="http://www.w3.org/2000/svg">
<g clip-path="url(#clip0_1_23)">
<path d="M12 0C8.8174 0 5.76516 1.26428 3.51472 3.51472C1.26428 5.76516 0 8.8174 0 12C0 15.1826 1.26428 18.2348 3.51472 20.4853C5.76516 22.7357 8.8174 24 12 24C15.1826 24 18.2348 22.7357 20.4853 20.4853C22.7357 18.2348 24 15.1826 24 12C24 8.8174 22.7357 5.76516 20.4853 3.51472C18.2348 1.26428 15.1826 0 12 0ZM12 5.727C13.6443 5.75636 15.2113 6.43017 16.3638 7.60339C17.5163 8.77661 18.162 10.3554 18.162 12C18.162 13.6446 17.5163 15.2234 16.3638 16.3966C15.2113 17.5698 13.6443 18.2436 12 18.273C10.3557 18.2436 8.78866 17.5698 7.6362 16.3966C6.48374 15.2234 5.83801 13.6446 5.83801 12C5.83801 10.3554 6.48374 8.77661 7.6362 7.60339C8.78866 6.43017 10.3557 5.75636 12 5.727ZM12 6.273C10.4818 6.27512 9.0263 6.87917 7.95274 7.95274C6.87917 9.0263 6.27512 10.4818 6.273 12C6.273 13.5189 6.87638 14.9756 7.9504 16.0496C9.02442 17.1236 10.4811 17.727 12 17.727C13.5189 17.727 14.9756 17.1236 16.0496 16.0496C17.1236 14.9756 17.727 13.5189 17.727 12C17.7249 10.4818 17.1208 9.0263 16.0473 7.95274C14.9737 6.87917 13.5182 6.27512 12 6.273ZM9.818 8.863L15.136 11.863L9.818 15.136V8.863Z" fill="#FF0000"/>
</g>
<defs>
<clipPath id="clip0_1_23">
<rect width="24" height="24" fill="white"/>
</clipPath>
</defs>
</svg>
