<svg width="62" height="44" viewBox="0 0 62 44" fill="none" xmlns="http://www.w3.org/2000/svg">
<path d="M58.874 7.906C58.5453 6.66806 57.8971 5.53822 56.9943 4.62964C56.0915 3.72105 54.9658 3.06563 53.73 2.729C49.193 1.505 31 1.505 31 1.505C31 1.505 12.807 1.505 8.27003 2.729C7.03422 3.06563 5.90854 3.72105 5.00575 4.62964C4.10296 5.53822 3.45475 6.66806 3.12603 7.906C1.91003 12.472 1.91003 22 1.91003 22C1.91003 22 1.91003 31.528 3.12603 36.095C3.45475 37.3329 4.10296 38.4628 5.00575 39.3714C5.90854 40.28 7.03422 40.9354 8.27003 41.272C12.807 42.495 31 42.495 31 42.495C31 42.495 49.193 42.495 53.73 41.272C54.9658 40.9354 56.0915 40.28 56.9943 39.3714C57.8971 38.4628 58.5453 37.3329 58.874 36.095C60.09 31.528 60.09 22 60.09 22C60.09 22 60.09 12.472 58.874 7.906Z" stroke="black" stroke-width="2" stroke-miterlimit="10"/>
<path d="M25.05 30.65L40.2561 22L25.05 13.35V30.65Z" stroke="black" stroke-width="2" stroke-miterlimit="10" stroke-linecap="round" stroke-linejoin="round"/>
</svg>
